<svg width="119" height="33" viewBox="0 0 119 33" fill="none" xmlns="http://www.w3.org/2000/svg">
<path id="Vector" fill-rule="evenodd" clip-rule="evenodd" d="M0.0234375 13.7141H7.5158V11.9312C7.5158 9.7587 9.2835 7.9923 11.4547 7.9923H21.8327V0.5H11.4547C5.1519 0.5 0.0234375 5.627 0.0234375 11.9299V13.7141ZM0.0234375 32.5H7.5158V24.4625C7.5158 22.29 9.2835 20.5236 11.4547 20.5236H21.8327V13.0313H11.4547C5.1519 13.0313 0.0234375 18.1597 0.0234375 24.4625V32.5ZM33.6094 6.0993H35.0288V14.7233H37.1532V6.0993H39.2073V4.4444H37.1229V3.4752C37.1229 2.5651 37.5538 2.1053 38.4735 2.1053C38.7585 2.1053 39.0421 2.126 39.2472 2.1645V0.5977C38.9732 0.5496 38.4941 0.5 38.0632 0.5C35.9691 0.5 35.0288 1.4403 35.0288 3.4366V4.4444H33.6094V6.0993ZM41.7102 0.5C41.0343 0.5 40.4863 1.0383 40.4863 1.7143C40.4863 2.3793 41.0343 2.9176 41.7102 2.919C42.3959 2.919 42.9438 2.3793 42.9438 1.7143C42.9438 1.0383 42.3959 0.5 41.7102 0.5ZM40.6529 4.4251V14.7233H42.7676V4.4251H40.6529ZM43.8691 9.5744C43.8691 6.3252 45.5915 4.2587 48.1756 4.2587C49.6543 4.2587 50.8287 5.0022 51.4055 6.138H51.4441V0.5979H53.5684V14.7221H51.5143V12.9708H51.4757C50.8686 14.1452 49.6942 14.8997 48.1963 14.8997C45.5915 14.8997 43.8691 12.8235 43.8691 9.5744ZM46.032 9.5744C46.032 11.7469 47.0797 13.1085 48.7539 13.1085C50.3785 13.1085 51.4647 11.729 51.4647 9.5744C51.4647 7.4404 50.3785 6.0402 48.7539 6.0402C47.0797 6.0402 46.032 7.4115 46.032 9.5744ZM59.5546 4.2399C56.6179 4.2399 54.6698 6.2665 54.6698 9.5749C54.6698 12.8929 56.6083 14.9195 59.5546 14.9195C62.5008 14.9195 64.4393 12.8929 64.4393 9.5749C64.4393 6.2665 62.4912 4.2399 59.5546 4.2399ZM59.5546 5.9829C61.2094 5.9829 62.2861 7.2936 62.2861 9.5749C62.2861 11.8644 61.2191 13.1765 59.5546 13.1765C57.8997 13.1765 56.8231 11.8658 56.8231 9.5749C56.8231 7.295 57.8997 5.9829 59.5546 5.9829ZM72.7812 4.2399C75.0722 4.2399 76.6775 5.5217 76.7449 7.3528H74.7583C74.6605 6.4235 73.9061 5.8452 72.722 5.8452C71.5766 5.8452 70.8139 6.4028 70.8139 7.2151C70.8139 7.8512 71.3233 8.2821 72.3903 8.5464L74.1222 8.9484C76.197 9.4482 76.9804 10.2302 76.9804 11.7474C76.9804 13.6267 75.2277 14.9195 72.7028 14.9195C70.2659 14.9195 68.651 13.657 68.4844 11.768H70.5784C70.745 12.7566 71.5078 13.3045 72.8005 13.3045C74.0726 13.3045 74.856 12.7758 74.856 11.9443C74.856 11.2889 74.465 10.9268 73.3884 10.6529L71.5477 10.2027C69.6877 9.7525 68.7487 8.7832 68.7487 7.3445C68.7473 5.5024 70.3733 4.2399 72.7812 4.2399ZM80.7649 4.4258V1.9889H78.6406V4.4258H77.1427V6.0999H78.6406V12.0103C78.6406 13.997 79.4543 14.79 81.5387 14.79C82.0081 14.79 82.4776 14.7515 82.713 14.6923V13.0181C82.5754 13.0484 82.2326 13.0677 82.0178 13.0677C81.1559 13.0677 80.7649 12.6671 80.7649 11.7763V6.0999H82.7227V4.4258H80.7649ZM92.68 14.7236H90.6545V12.9806H90.6049C90.0377 14.2142 88.99 14.9094 87.4136 14.9094C85.1722 14.9094 83.801 13.4514 83.801 11.0917V4.4254H85.9157V10.68C85.9157 12.2468 86.6591 13.088 88.1185 13.088C89.6453 13.088 90.565 12.0306 90.565 10.4253V4.4254H92.68V14.7236ZM98.012 4.2587C95.427 4.2587 93.705 6.3252 93.705 9.5744C93.705 12.8235 95.427 14.8997 98.031 14.8997C99.529 14.8997 100.703 14.1452 101.31 12.9708H101.349V14.7221H103.404V0.5979H101.28V6.138H101.241C100.665 5.0022 99.49 4.2587 98.012 4.2587ZM98.59 13.1085C96.916 13.1085 95.868 11.7469 95.868 9.5744C95.868 7.4115 96.916 6.0402 98.59 6.0402C100.214 6.0402 101.301 7.4404 101.301 9.5744C101.301 11.729 100.214 13.1085 98.59 13.1085ZM104.869 1.7143C104.869 1.0383 105.417 0.5 106.093 0.5C106.779 0.5 107.327 1.0383 107.327 1.7143C107.327 2.3793 106.779 2.919 106.093 2.919C105.417 2.9176 104.869 2.3793 104.869 1.7143ZM107.15 4.4251V14.7233H105.036V4.4251H107.15ZM113.137 4.2399C110.2 4.2399 108.252 6.2665 108.252 9.5749C108.252 12.8929 110.191 14.9195 113.137 14.9195C116.083 14.9195 118.022 12.8929 118.022 9.5749C118.022 6.2665 116.074 4.2399 113.137 4.2399ZM113.136 5.9829C114.79 5.9829 115.867 7.2936 115.867 9.5749C115.867 11.8644 114.8 13.1765 113.136 13.1765C111.481 13.1765 110.404 11.8658 110.404 9.5749C110.404 7.295 111.481 5.9829 113.136 5.9829ZM73.5447 21.4118C73.5447 21.2273 73.6948 21.08 73.8779 21.08C74.0651 21.08 74.2138 21.2273 74.2138 21.4118C74.2138 21.5936 74.0638 21.7409 73.8779 21.7409C73.6948 21.7409 73.5447 21.5936 73.5447 21.4118ZM73.5902 22.1511H74.167V24.9597H73.5902V22.1511ZM70.5101 22.1057C69.8052 22.1057 69.3358 22.6688 69.3358 23.5554C69.3358 24.442 69.8066 25.0079 70.5156 25.0079C70.9245 25.0079 71.2453 24.8028 71.4105 24.482H71.4215V24.9597H71.9819V21.1062H71.4023V22.6178H71.3913C71.2343 22.3081 70.9135 22.1057 70.5101 22.1057ZM70.6685 24.5191C70.2127 24.5191 69.9264 24.1488 69.9264 23.5554C69.9264 22.9662 70.2114 22.5917 70.6685 22.5917C71.1118 22.5917 71.4078 22.973 71.4078 23.5554C71.4078 24.1433 71.1118 24.5191 70.6685 24.5191ZM35.952 24.9598H36.5178L37.3507 22.0548H37.3769L38.2098 24.9598H38.7729L39.8138 21.1062H39.1915L38.4783 24.1241H38.4563L37.6399 21.1062H37.085L36.27 24.1241H36.2493L35.5362 21.1062H34.9139L35.952 24.9598ZM41.0549 25.0134C41.6992 25.0134 42.1852 24.6472 42.265 24.135V24.1337H41.7157C41.6386 24.3801 41.3963 24.5453 41.0673 24.5453C40.6047 24.5453 40.3114 24.2218 40.3114 23.733V23.6986H42.2953V23.5017C42.2953 22.6509 41.8093 22.1002 41.0301 22.1002C40.2371 22.1002 39.7304 22.6881 39.7304 23.5692C39.7304 24.4558 40.2302 25.0134 41.0549 25.0134ZM41.7198 23.2966H40.3155C40.3445 22.8726 40.6294 22.5655 41.0315 22.5655C41.4335 22.5655 41.7061 22.8671 41.7198 23.2966ZM43.6287 24.1633C43.6287 23.6718 44.0046 23.3702 44.6723 23.3331L45.4405 23.2876V23.0715C45.4405 22.759 45.2299 22.5717 44.8774 22.5717C44.5443 22.5717 44.335 22.7314 44.2841 22.9834H43.7389C43.7705 22.4767 44.2028 22.1022 44.8981 22.1022C45.5796 22.1022 46.0146 22.463 46.0146 23.0261V24.9618H45.4626V24.4992H45.4488C45.2863 24.8117 44.9311 25.0086 44.5622 25.0086C44.0128 25.0086 43.6287 24.6671 43.6287 24.1633ZM45.4419 23.9086V23.6869L44.7508 23.7296C44.4066 23.753 44.2111 23.9058 44.2111 24.1467C44.2111 24.3918 44.4135 24.5529 44.7232 24.5529C45.1266 24.5529 45.4419 24.2748 45.4419 23.9086ZM47.072 22.1516H46.5227V24.9615H47.0995V23.2792C47.0995 22.8813 47.3281 22.6335 47.6998 22.6335C47.8113 22.6335 47.9132 22.6458 47.9586 22.6651V22.1282C47.916 22.1199 47.8444 22.1062 47.7618 22.1062C47.43 22.1062 47.1794 22.3003 47.0858 22.6293H47.072V22.1516ZM50.5483 24.135C50.4685 24.6472 49.9825 25.0134 49.3382 25.0134C48.5135 25.0134 48.0137 24.4558 48.0137 23.5692C48.0137 22.6881 48.5204 22.1002 49.3134 22.1002C50.0926 22.1002 50.5786 22.6509 50.5786 23.5017V23.6986H48.5947V23.733C48.5947 24.2218 48.888 24.5453 49.3505 24.5453C49.6796 24.5453 49.9219 24.3801 49.999 24.1337H50.5483V24.135ZM48.5988 23.2966H50.0031C49.9894 22.8671 49.7168 22.5655 49.3148 22.5655C48.9127 22.5655 48.6278 22.8726 48.5988 23.2966ZM53.2266 25.0135C53.8709 25.0135 54.3569 24.6473 54.4368 24.1351V24.1338H53.8874C53.8103 24.3802 53.568 24.5454 53.239 24.5454C52.7764 24.5454 52.4831 24.2219 52.4831 23.7331V23.6987H54.4671V23.5018C54.4671 22.651 53.9811 22.1003 53.2018 22.1003C52.4088 22.1003 51.9022 22.6882 51.9022 23.5693C51.9022 24.4559 52.4019 25.0135 53.2266 25.0135ZM53.8916 23.2967H52.4873C52.5162 22.8727 52.8012 22.5656 53.2032 22.5656C53.6052 22.5656 53.8778 22.8671 53.8916 23.2967ZM54.8586 22.1514H55.4079V22.6209H55.4217C55.5745 22.3001 55.8733 22.1032 56.3056 22.1032C56.9251 22.1032 57.2803 22.4984 57.2803 23.1413V24.96H56.7007V23.2542C56.7007 22.8329 56.5025 22.6002 56.1032 22.6002C55.6971 22.6002 55.4355 22.888 55.4355 23.3244V24.9614H54.8586V22.1514ZM58.3362 25.1791H57.7566C57.8282 25.6665 58.3197 26.0175 58.9833 26.0175C59.7845 26.0175 60.3022 25.5797 60.3022 24.9092V22.1516H59.7419V22.6321H59.7308C59.5601 22.3072 59.2338 22.1062 58.8359 22.1062C58.1145 22.1062 57.6561 22.661 57.6561 23.5449C57.6561 24.4205 58.1173 24.9712 58.8222 24.9712C59.2228 24.9712 59.5546 24.7702 59.7116 24.4659H59.7226V24.9285C59.7226 25.3126 59.4555 25.5687 59.0039 25.5687C58.6749 25.5687 58.4188 25.4145 58.3362 25.1791ZM58.9764 22.5935C59.428 22.5935 59.724 22.9721 59.724 23.549C59.724 24.1272 59.428 24.4935 58.9764 24.4948C58.5331 24.4948 58.2453 24.1369 58.2453 23.549C58.2453 22.9653 58.5331 22.5935 58.9764 22.5935ZM60.7029 24.1633C60.7029 23.6718 61.0788 23.3702 61.7465 23.3331L62.5148 23.2876V23.0715C62.5148 22.759 62.3041 22.5717 61.9517 22.5717C61.6185 22.5717 61.4092 22.7314 61.3583 22.9834H60.8131C60.8447 22.4767 61.277 22.1022 61.9723 22.1022C62.6538 22.1022 63.0889 22.463 63.0889 23.0261V24.9618H62.5368V24.4992H62.523C62.3606 24.8117 62.0054 25.0086 61.6364 25.0086C61.0884 25.0086 60.7029 24.6671 60.7029 24.1633ZM62.5161 23.9086V23.6869L61.825 23.7296C61.4808 23.753 61.2853 23.9058 61.2853 24.1467C61.2853 24.3918 61.4877 24.5529 61.7975 24.5529C62.2009 24.5529 62.5161 24.2748 62.5161 23.9086ZM64.1485 25.1792H63.5689C63.6419 25.6665 64.1334 26.0176 64.7956 26.0176C65.5969 26.0176 66.1145 25.5798 66.1145 24.9093V22.1517H65.5542V22.6322H65.5432C65.3725 22.3072 65.0462 22.1062 64.6483 22.1062C63.9269 22.1062 63.4684 22.6611 63.4684 23.545C63.4684 24.4206 63.9296 24.9713 64.6345 24.9713C65.0352 24.9713 65.367 24.7703 65.5239 24.466H65.5349V24.9286C65.5349 25.3127 65.2678 25.5688 64.8163 25.5688C64.4872 25.5688 64.2311 25.4146 64.1485 25.1792ZM64.7901 22.5936C65.2417 22.5936 65.5377 22.9722 65.5377 23.5491C65.5377 24.1273 65.2417 24.4935 64.7901 24.4949C64.3468 24.4949 64.059 24.137 64.059 23.5491C64.059 22.9653 64.3468 22.5936 64.7901 22.5936ZM69.0383 24.1351C68.9585 24.6473 68.4725 25.0135 67.8282 25.0135C67.0035 25.0135 66.5037 24.4559 66.5037 23.5693C66.5037 22.6882 67.0104 22.1003 67.8034 22.1003C68.5826 22.1003 69.0686 22.651 69.0686 23.5018V23.6987H67.0847V23.7331C67.0847 24.2219 67.378 24.5454 67.8405 24.5454C68.1696 24.5454 68.4119 24.3802 68.489 24.1338H69.0383V24.1351ZM67.0888 23.2967H68.4931C68.4794 22.8671 68.2068 22.5656 67.8047 22.5656C67.4027 22.5656 67.1178 22.8727 67.0888 23.2967ZM75.2536 22.1514H74.7043V24.9614H75.2812V23.3244C75.2812 22.888 75.5428 22.6002 75.9489 22.6002C76.3482 22.6002 76.5464 22.8329 76.5464 23.2542V24.96H77.126V23.1413C77.126 22.4984 76.7708 22.1032 76.1513 22.1032C75.719 22.1032 75.4202 22.3001 75.2674 22.6209H75.2536V22.1514ZM79.4258 21.4863V22.1513H79.96V22.6083H79.4258V24.1572C79.4258 24.4009 79.5332 24.5096 79.7673 24.5096C79.8265 24.5096 79.9201 24.5041 79.9573 24.4959V24.953C79.8925 24.9695 79.7645 24.9791 79.6365 24.9791C79.0679 24.9791 78.8462 24.763 78.8462 24.2205V22.6083H78.4373V22.1513H78.8462V21.4863H79.4258ZM80.9698 21.1072H80.3998V24.9608H80.9766V23.3376C80.9766 22.8943 81.2382 22.601 81.665 22.601C82.0712 22.601 82.2791 22.8488 82.2791 23.2633V24.9608H82.8587V23.1504C82.8587 22.5157 82.4897 22.104 81.8729 22.104C81.4461 22.104 81.1377 22.2926 80.9835 22.6217H80.9698V21.1072ZM85.7688 24.1351C85.6889 24.6473 85.203 25.0135 84.5586 25.0135C83.7339 25.0135 83.2342 24.4559 83.2342 23.5693C83.2342 22.6882 83.7408 22.1003 84.5338 22.1003C85.3131 22.1003 85.7991 22.651 85.7991 23.5018V23.6987H83.8152V23.7331C83.8152 24.2219 84.1084 24.5454 84.571 24.5454C84.9001 24.5454 85.1424 24.3802 85.2195 24.1338H85.7688V24.1351ZM83.8193 23.2967H85.2236C85.2098 22.8671 84.9372 22.5656 84.5352 22.5656C84.1332 22.5656 83.8482 22.8727 83.8193 23.2967ZM88.1762 23.3331C87.5085 23.3702 87.1326 23.6718 87.1326 24.1633C87.1326 24.6671 87.5181 25.0086 88.0661 25.0086C88.435 25.0086 88.7903 24.8117 88.9527 24.4992H88.9665V24.9618H89.5186V23.0261C89.5186 22.463 89.0835 22.1022 88.402 22.1022C87.7067 22.1022 87.2744 22.4767 87.2428 22.9834H87.788C87.8389 22.7314 88.0482 22.5717 88.3813 22.5717C88.7338 22.5717 88.9444 22.759 88.9444 23.0715V23.2876L88.1762 23.3331ZM88.9458 23.6869V23.9086C88.9458 24.2748 88.6305 24.5529 88.2271 24.5529C87.9174 24.5529 87.715 24.3918 87.715 24.1467C87.715 23.9058 87.9105 23.753 88.2547 23.7296L88.9458 23.6869ZM90.0266 22.1514H90.5759V22.6209H90.5897C90.7425 22.3001 91.041 22.1032 91.474 22.1032C92.093 22.1032 92.448 22.4984 92.448 23.1413V24.96H91.869V23.2542C91.869 22.8329 91.67 22.6002 91.271 22.6002C90.865 22.6002 90.6034 22.888 90.6034 23.3244V24.9614H90.0266V22.1514ZM93.877 23.3331C93.21 23.3702 92.834 23.6718 92.834 24.1633C92.834 24.6671 93.219 25.0086 93.767 25.0086C94.136 25.0086 94.491 24.8117 94.654 24.4992H94.668V24.9618H95.22V23.0261C95.22 22.463 94.785 22.1022 94.103 22.1022C93.408 22.1022 92.976 22.4767 92.944 22.9834H93.489C93.54 22.7314 93.749 22.5717 94.083 22.5717C94.435 22.5717 94.646 22.759 94.646 23.0715V23.2876L93.877 23.3331ZM94.647 23.6869V23.9086C94.647 24.2748 94.332 24.5529 93.928 24.5529C93.619 24.5529 93.416 24.3918 93.416 24.1467C93.416 23.9058 93.612 23.753 93.956 23.7296L94.647 23.6869ZM96.473 21.4863V22.1513H97.007V22.6083H96.473V24.1572C96.473 24.4009 96.58 24.5096 96.814 24.5096C96.873 24.5096 96.967 24.5041 97.004 24.4959V24.953C96.939 24.9695 96.811 24.9791 96.683 24.9791C96.115 24.9791 95.893 24.763 95.893 24.2205V22.6083H95.484V22.1513H95.893V21.4863H96.473ZM98.565 22.1003C97.764 22.1003 97.232 22.6524 97.232 23.5555C97.232 24.4614 97.761 25.0135 98.565 25.0135C99.369 25.0135 99.898 24.4601 99.898 23.5555C99.898 22.6524 99.366 22.1003 98.565 22.1003ZM98.565 22.5753C99.017 22.5753 99.31 22.9332 99.31 23.5555C99.31 24.1806 99.018 24.5385 98.565 24.5385C98.113 24.5385 97.82 24.1806 97.82 23.5555C97.82 22.9332 98.113 22.5753 98.565 22.5753ZM100.291 22.1514H100.842V22.6236H100.855C100.981 22.3111 101.274 22.1032 101.654 22.1032C102.043 22.1032 102.327 22.3042 102.439 22.6539H102.452C102.597 22.3125 102.927 22.1032 103.328 22.1032C103.883 22.1032 104.246 22.4722 104.246 23.0298V24.96H103.667V23.1688C103.667 22.8054 103.471 22.5975 103.13 22.5975C102.788 22.5975 102.55 22.8508 102.55 23.206V24.96H101.984V23.1262C101.984 22.8026 101.779 22.5975 101.453 22.5975C101.111 22.5975 100.868 22.8646 100.868 23.2253V24.9614H100.291V22.1514ZM104.786 25.526V25.9927C104.829 26.001 104.976 26.0065 105.023 26.0079C105.608 26.0079 105.882 25.789 106.123 25.1075L107.178 22.1516H106.569L105.856 24.437H105.848L105.135 22.1516H104.51L105.524 24.9629C105.524 24.9629 105.516 24.9931 105.505 25.0271C105.491 25.0751 105.473 25.1332 105.473 25.1364C105.385 25.4255 105.243 25.537 104.974 25.537C104.925 25.537 104.829 25.537 104.786 25.526ZM34.9549 30.0372C34.9549 29.1354 35.4863 28.582 36.2876 28.582C37.0889 28.582 37.6203 29.1341 37.6203 30.0372C37.6203 30.9417 37.0916 31.4952 36.2876 31.4952C35.4836 31.4952 34.9549 30.9431 34.9549 30.0372ZM37.0324 30.0372C37.0324 29.4149 36.7392 29.057 36.2876 29.057C35.836 29.057 35.5428 29.4149 35.5428 30.0372C35.5428 30.6623 35.836 31.0202 36.2876 31.0202C36.7419 31.0202 37.0324 30.6623 37.0324 30.0372ZM37.7929 29.0891H38.1798V31.4406H38.7594V29.0877H39.3197V28.6361H38.7511V28.3718C38.7511 28.1226 38.8695 27.9973 39.1201 27.9973C39.1972 27.9973 39.2743 28.0028 39.3308 28.0139V27.5871C39.255 27.5747 39.1242 27.5609 39.0072 27.5609C38.4359 27.5609 38.1798 27.817 38.1798 28.3622V28.6375H37.7929V29.0891ZM43.1813 31.4421H42.6292V30.9671H42.6154C42.4613 31.303 42.1749 31.493 41.7453 31.493C41.1341 31.493 40.7596 31.0951 40.7596 30.4522V28.6335H41.3364V30.3393C41.3364 30.7661 41.5388 30.996 41.9367 30.996C42.3539 30.996 42.6044 30.7083 42.6044 30.2705V28.6335H43.1813V31.4421ZM45.8258 29.4314C45.8079 28.9317 45.3701 28.582 44.7451 28.582C44.0884 28.582 43.645 28.9262 43.6423 29.4259C43.6423 29.8183 43.8997 30.0827 44.4064 30.2052L44.9089 30.3277C45.2022 30.4021 45.3095 30.5012 45.3095 30.6802C45.3095 30.9073 45.0961 31.0519 44.7492 31.0519C44.3968 31.0519 44.1889 30.9032 44.1434 30.6334H43.5721C43.6175 31.1496 44.0581 31.4938 44.723 31.4938C45.4114 31.4938 45.8892 31.1414 45.8892 30.6292C45.8892 30.2148 45.6758 30.0014 45.1099 29.8651L44.6377 29.7564C44.3472 29.6834 44.2081 29.5664 44.2081 29.3929C44.2081 29.1726 44.416 29.0198 44.7286 29.0198C45.0507 29.0198 45.2572 29.1781 45.2834 29.4314H45.8258ZM48.6926 30.6168C48.6128 31.129 48.1268 31.4952 47.4825 31.4952C46.6578 31.4952 46.158 30.9376 46.158 30.051C46.158 29.1699 46.6647 28.582 47.4577 28.582C48.2369 28.582 48.7229 29.1327 48.7229 29.9835V30.1804H46.739V30.2148C46.739 30.7036 47.0323 31.0271 47.4949 31.0271C47.8239 31.0271 48.0662 30.8619 48.1433 30.6155H48.6926V30.6168ZM46.7431 29.7784H48.1474C48.1337 29.3488 47.8611 29.0473 47.4591 29.0473C47.057 29.0473 46.772 29.3543 46.7431 29.7784ZM49.6677 28.6325H49.1184V31.4425H49.6952V29.7601C49.6952 29.3622 49.9238 29.1144 50.2955 29.1144C50.407 29.1144 50.5089 29.1268 50.5543 29.1461V28.6091C50.5117 28.6009 50.4401 28.5871 50.3575 28.5871C50.0257 28.5871 49.7751 28.7812 49.6815 29.1103H49.6677V28.6325ZM51.8846 27.8928C51.8846 27.7083 52.0346 27.561 52.2178 27.561C52.405 27.561 52.5537 27.7083 52.5537 27.8928C52.5537 28.0745 52.4036 28.2218 52.2178 28.2218C52.0333 28.2218 51.8846 28.0745 51.8846 27.8928ZM51.93 28.6321H52.5069V31.4407H51.93V28.6321ZM53.5935 28.6324H53.0442V31.4423H53.621V29.8054C53.621 29.3689 53.8826 29.0812 54.2887 29.0812C54.688 29.0812 54.8863 29.3139 54.8863 29.7352V31.441H55.4659V29.6223C55.4659 28.9793 55.1107 28.5842 54.4911 28.5842C54.0588 28.5842 53.7601 28.7811 53.6073 29.1018H53.5935V28.6324ZM56.711 27.9672V28.6322H57.2452V29.0893H56.711V30.6381C56.711 30.8818 56.8184 30.9906 57.0524 30.9906C57.1116 30.9906 57.2052 30.9851 57.2424 30.9768V31.4339C57.1777 31.4504 57.0497 31.4601 56.9216 31.4601C56.353 31.4601 56.1314 31.2439 56.1314 30.7015V29.0893H55.7225V28.6322H56.1314V27.9672H56.711ZM58.7948 31.4953C59.4392 31.4953 59.9252 31.1291 60.005 30.6169V30.6155H59.4571C59.38 30.862 59.1377 31.0272 58.8086 31.0272C58.346 31.0272 58.0528 30.7037 58.0528 30.2149V30.1805H60.0353V29.9836C60.0353 29.1328 59.5493 28.5821 58.7701 28.5821C57.9771 28.5821 57.4704 29.1699 57.4704 30.0511C57.4704 30.9377 57.9702 31.4953 58.7948 31.4953ZM59.4598 29.7785H58.0555C58.0844 29.3544 58.3694 29.0474 58.7714 29.0474C59.1735 29.0474 59.4461 29.3489 59.4598 29.7785ZM60.4309 28.6325H60.9802V29.1103H60.994C61.0876 28.7812 61.3382 28.5871 61.67 28.5871C61.7526 28.5871 61.8242 28.6009 61.8668 28.6091V29.1461C61.8214 29.1268 61.7195 29.1144 61.608 29.1144C61.2363 29.1144 61.0077 29.3622 61.0077 29.7601V31.4425H60.4309V28.6325ZM61.949 29.0892H62.3359V31.4407H62.9155V29.0878H63.4759V28.6362H62.9073V28.3719C62.9073 28.1227 63.0257 27.9974 63.2762 27.9974C63.3533 27.9974 63.4304 28.0029 63.4869 28.0139V27.5871C63.4112 27.5748 63.2804 27.561 63.1633 27.561C62.592 27.561 62.3359 27.8171 62.3359 28.3623V28.6376H61.949V29.0892ZM63.609 30.6441C63.609 30.1526 63.9849 29.8511 64.6526 29.8139L65.4208 29.7685V29.5523C65.4208 29.2398 65.2102 29.0526 64.8577 29.0526C64.5246 29.0526 64.3153 29.2123 64.2644 29.4642H63.7192C63.7508 28.9576 64.1831 28.5831 64.8784 28.5831C65.5599 28.5831 65.995 28.9438 65.995 29.5069V31.4426H65.4429V30.98H65.4291C65.2666 31.2925 64.9114 31.4894 64.5425 31.4894C63.9931 31.4894 63.609 31.148 63.609 30.6441ZM65.4222 30.3894V30.1677L64.7311 30.2104C64.3869 30.2338 64.1914 30.3866 64.1914 30.6276C64.1914 30.8726 64.3938 31.0337 64.7036 31.0337C65.1069 31.0337 65.4222 30.7556 65.4222 30.3894ZM67.7019 29.0626C68.0777 29.0626 68.3021 29.3007 68.3613 29.5995H68.9107C68.8611 29.046 68.4205 28.5821 67.6964 28.5821C66.8978 28.5821 66.3747 29.1452 66.3747 30.0373C66.3747 30.9446 66.8978 31.4953 67.7019 31.4953C68.3765 31.4953 68.8542 31.0891 68.9162 30.4916H68.3613C68.2952 30.8166 68.0626 31.0121 67.7074 31.0121C67.2585 31.0121 66.9625 30.6541 66.9625 30.0373C66.9625 29.4343 67.2558 29.0626 67.7019 29.0626ZM71.679 30.6168C71.5991 31.129 71.1131 31.4952 70.4688 31.4952C69.6441 31.4952 69.1443 30.9376 69.1443 30.051C69.1443 29.1699 69.651 28.582 70.444 28.582C71.2233 28.582 71.7092 29.1327 71.7092 29.9835V30.1804H69.7253V30.2148C69.7253 30.7036 70.0186 31.0271 70.4812 31.0271C70.8102 31.0271 71.0525 30.8619 71.1296 30.6155H71.679V30.6168ZM69.7295 29.7784H71.1338C71.12 29.3488 70.8474 29.0473 70.4454 29.0473C70.0434 29.0473 69.7598 29.3543 69.7295 29.7784ZM74.0881 29.8139C73.4204 29.8511 73.0445 30.1526 73.0445 30.6441C73.0445 31.148 73.4287 31.4894 73.978 31.4894C74.347 31.4894 74.7022 31.2925 74.8646 30.98H74.8784V31.4426H75.4305V29.5069C75.4305 28.9438 74.9954 28.5831 74.3139 28.5831C73.6187 28.5831 73.1864 28.9576 73.1547 29.4642H73.6999C73.7508 29.2123 73.9601 29.0526 74.2933 29.0526C74.6457 29.0526 74.8564 29.2398 74.8564 29.5523V29.7685L74.0881 29.8139ZM74.8564 30.1677V30.3894C74.8564 30.7556 74.5425 31.0337 74.1377 31.0337C73.8279 31.0337 73.6255 30.8726 73.6255 30.6276C73.6255 30.3866 73.821 30.2338 74.1652 30.2104L74.8564 30.1677ZM75.9345 28.6323H76.4839V29.1017H76.4976C76.6505 28.781 76.9492 28.5841 77.3815 28.5841C78.0011 28.5841 78.3563 28.9792 78.3563 29.6222V31.4409H77.7766V29.7351C77.7766 29.3138 77.5784 29.0811 77.1791 29.0811C76.773 29.0811 76.5114 29.3688 76.5114 29.8053V31.4422H75.9345V28.6323ZM79.9064 28.5876C79.2015 28.5876 78.7321 29.1507 78.7321 30.0374C78.7321 30.924 79.2015 31.4899 79.9119 31.4899C80.3208 31.4899 80.6416 31.2847 80.8068 30.9639H80.8179V31.4417H81.3782V27.5881H80.7986V29.0998H80.7876C80.6306 28.79 80.3098 28.5876 79.9064 28.5876ZM80.0648 31.0011C79.6091 31.0011 79.3227 30.6308 79.3227 30.0374C79.3227 29.4481 79.6077 29.0736 80.0648 29.0736C80.5081 29.0736 80.8041 29.455 80.8041 30.0374C80.8041 30.6252 80.5081 31.0011 80.0648 31.0011ZM82.8416 30.0373C82.8416 29.1507 83.3111 28.5876 84.016 28.5876C84.4194 28.5876 84.7402 28.79 84.8971 29.0998H84.9081V27.5881H85.4877V31.4416H84.9274V30.9639H84.9164C84.7512 31.2847 84.4304 31.4898 84.0215 31.4898C83.3125 31.4898 82.8416 30.924 82.8416 30.0373ZM83.4322 30.0373C83.4322 30.6307 83.7186 31.0011 84.1743 31.0011C84.6176 31.0011 84.9136 30.6252 84.9136 30.0373C84.9136 29.455 84.6176 29.0736 84.1743 29.0736C83.7172 29.0736 83.4322 29.4481 83.4322 30.0373ZM86.3309 27.5609C86.1478 27.5609 85.9977 27.7082 85.9977 27.8927C85.9977 28.0744 86.1464 28.2217 86.3309 28.2217C86.5168 28.2217 86.6668 28.0744 86.6668 27.8927C86.6668 27.7082 86.5181 27.5609 86.3309 27.5609ZM86.62 28.632H86.0432V31.4406H86.62V28.632ZM87.1316 31.66H87.7112C87.7938 31.8955 88.0499 32.0497 88.3789 32.0497C88.8305 32.0497 89.0976 31.7936 89.0976 31.4095V30.9469H89.0866C88.9296 31.2511 88.5978 31.4521 88.1972 31.4521C87.4923 31.4521 87.0311 30.9014 87.0311 30.0258C87.0311 29.1419 87.4895 28.5871 88.2109 28.5871C88.6088 28.5871 88.9351 28.7881 89.1058 29.113H89.1169V28.6325H89.6772V31.3902C89.6772 32.0607 89.1595 32.4985 88.3583 32.4985C87.696 32.4985 87.2045 32.146 87.1316 31.66ZM89.1003 30.0286C89.1003 29.4517 88.8043 29.0731 88.3528 29.0731C87.9094 29.0731 87.6217 29.4448 87.6217 30.0286C87.6217 30.6165 87.9094 30.9744 88.3528 30.9744C88.803 30.9744 89.1003 30.6082 89.1003 30.0286ZM90.4971 27.561C90.3139 27.561 90.1639 27.7083 90.1639 27.8928C90.1639 28.0745 90.3126 28.2218 90.4971 28.2218C90.6829 28.2218 90.833 28.0745 90.833 27.8928C90.833 27.7083 90.6843 27.561 90.4971 27.561ZM90.7862 28.6321H90.2093V31.4407H90.7862V28.6321ZM92.07 27.9672V28.6322H92.605V29.0893H92.07V30.6381C92.07 30.8818 92.178 30.9906 92.412 30.9906C92.471 30.9906 92.565 30.9851 92.602 30.9768V31.4339C92.537 31.4504 92.409 31.4601 92.281 31.4601C91.712 31.4601 91.491 31.2439 91.491 30.7015V29.0893H91.082V28.6322H91.491V27.9672H92.07ZM93.911 29.8138C93.243 29.851 92.867 30.1525 92.867 30.644C92.867 31.1479 93.251 31.4893 93.8 31.4893C94.169 31.4893 94.525 31.2924 94.687 30.9799H94.701V31.4425H95.253V29.5068C95.253 28.9437 94.818 28.583 94.136 28.583C93.441 28.583 93.009 28.9574 92.977 29.4641H93.522C93.573 29.2121 93.783 29.0524 94.116 29.0524C94.468 29.0524 94.679 29.2397 94.679 29.5522V29.7683L93.911 29.8138ZM94.68 30.1676V30.3893C94.68 30.7555 94.365 31.0336 93.962 31.0336C93.652 31.0336 93.449 30.8725 93.449 30.6274C93.449 30.3865 93.645 30.2337 93.989 30.2103L94.68 30.1676ZM95.777 27.5891H96.354V31.4427H95.777V27.5891ZM98.529 30.9639H98.54C98.713 31.2902 99.03 31.4899 99.443 31.4885C100.156 31.4885 100.615 30.9281 100.615 30.036C100.615 29.1466 100.153 28.5863 99.446 28.5863C99.048 28.5863 98.727 28.7831 98.559 29.1094H98.545V27.5881H97.969V31.4417H98.529V30.9639ZM99.287 31.0011C98.85 31.0011 98.543 30.6225 98.543 30.0374C98.543 29.4578 98.85 29.0736 99.287 29.0736C99.74 29.0736 100.021 29.4467 100.021 30.0374C100.021 30.6321 99.742 31.0011 99.287 31.0011ZM101.009 28.6325H101.559V29.1103H101.572C101.666 28.7812 101.917 28.5871 102.248 28.5871C102.331 28.5871 102.403 28.6009 102.445 28.6091V29.1461C102.4 29.1268 102.298 29.1144 102.186 29.1144C101.815 29.1144 101.586 29.3622 101.586 29.7601V31.4425H101.009V28.6325ZM103.621 29.8139C102.954 29.8511 102.578 30.1526 102.578 30.6441C102.578 31.148 102.963 31.4894 103.511 31.4894C103.88 31.4894 104.236 31.2925 104.398 30.98H104.412V31.4426H104.964V29.5069C104.964 28.9438 104.529 28.5831 103.847 28.5831C103.152 28.5831 102.72 28.9576 102.688 29.4642H103.233C103.284 29.2123 103.493 29.0526 103.827 29.0526C104.179 29.0526 104.39 29.2398 104.39 29.5523V29.7685L103.621 29.8139ZM104.391 30.1677V30.3894C104.391 30.7556 104.076 31.0337 103.672 31.0337C103.363 31.0337 103.16 30.8726 103.16 30.6276C103.16 30.3866 103.356 30.2338 103.7 30.2104L104.391 30.1677ZM105.47 28.6324H106.019V29.1018H106.033C106.186 28.7811 106.485 28.5842 106.917 28.5842C107.536 28.5842 107.892 28.9793 107.892 29.6223V31.441H107.312V29.7352C107.312 29.3139 107.114 29.0812 106.715 29.0812C106.308 29.0812 106.047 29.3689 106.047 29.8054V31.4423H105.47V28.6324ZM109.438 28.5876C108.733 28.5876 108.263 29.1507 108.263 30.0373C108.263 30.924 108.733 31.4898 109.443 31.4898C109.852 31.4898 110.173 31.2847 110.338 30.9639H110.349V31.4416H110.91V27.5881H110.33V29.0998H110.319C110.162 28.79 109.841 28.5876 109.438 28.5876ZM109.595 31.0011C109.139 31.0011 108.853 30.6307 108.853 30.0373C108.853 29.4481 109.139 29.0736 109.595 29.0736C110.038 29.0736 110.334 29.455 110.334 30.0373C110.334 30.6252 110.038 31.0011 109.595 31.0011ZM111.42 27.8928C111.42 27.7083 111.57 27.561 111.753 27.561C111.94 27.561 112.089 27.7083 112.089 27.8928C112.089 28.0745 111.939 28.2218 111.753 28.2218C111.57 28.2218 111.42 28.0745 111.42 27.8928ZM111.465 28.6321H112.042V31.4407H111.465V28.6321ZM113.129 28.6323H112.579V31.4422H113.156V29.8053C113.156 29.3688 113.418 29.0811 113.824 29.0811C114.223 29.0811 114.421 29.3138 114.421 29.7351V31.4409H115.001V29.6222C115.001 28.9792 114.646 28.5841 114.026 28.5841C113.594 28.5841 113.295 28.781 113.142 29.1017H113.129V28.6323ZM115.477 31.66H116.057C116.139 31.8955 116.396 32.0497 116.725 32.0497C117.176 32.0497 117.443 31.7936 117.443 31.4095V30.9469H117.432C117.275 31.2511 116.944 31.4521 116.543 31.4521C115.838 31.4521 115.377 30.9014 115.377 30.0258C115.377 29.1419 115.835 28.5871 116.557 28.5871C116.955 28.5871 117.281 28.7881 117.452 29.113H117.461V28.6325H118.022V31.3902C118.022 32.0607 117.504 32.4985 116.703 32.4985C116.04 32.4985 115.549 32.146 115.477 31.66ZM117.445 30.0286C117.445 29.4517 117.149 29.0731 116.697 29.0731C116.254 29.0731 115.966 29.4448 115.966 30.0286C115.966 30.6165 116.254 30.9744 116.697 30.9744C117.149 30.9744 117.445 30.6082 117.445 30.0286Z" fill="black"/>
</svg>
