<svg width="48" height="43" viewBox="0 0 48 43" fill="none" xmlns="http://www.w3.org/2000/svg">
<path id="Vector" d="M47.3429 15.8705C47.3706 16.624 47.3197 17.3783 47.1912 18.1213C46.759 21.1716 44.7826 22.8461 42.0343 23.7197C39.6287 24.4781 37.1245 24.6222 34.6112 24.5903C34.5156 24.5903 34.4186 24.5903 34.3215 24.5812C34.1031 24.5615 33.9893 24.648 33.9726 24.874C33.9529 25.1258 34.1243 25.1015 34.2866 25.1182C35.9035 25.2699 37.5113 25.1667 39.1175 24.9847C40.607 24.8148 42.104 24.6813 43.5237 24.1338C44.4507 23.7617 45.33 23.2805 46.1432 22.7005C46.1902 22.9811 46.0764 23.1798 46.0097 23.38C45.6593 24.4538 45.3317 25.5383 44.684 26.4833C43.4949 28.2184 41.8022 28.9268 39.7455 28.9344C37.6887 28.9419 35.6654 28.5855 33.6374 28.2988C33.397 28.2722 33.158 28.2332 32.9215 28.182C32.5894 28.1017 32.4559 28.3337 32.4028 28.5552C32.3376 28.8267 32.6242 28.7705 32.7683 28.81C35.8777 29.6351 39.0204 30.1098 42.2269 29.6958C42.3315 29.8657 42.2102 29.9324 42.145 30.0128C41.6062 30.6982 41.0132 31.3393 40.3719 31.93C39.2828 32.9068 37.9663 33.0251 36.6012 32.9204C34.8311 32.7824 33.2249 32.0983 31.6399 31.3642C31.386 31.2607 31.1393 31.1406 30.9012 31.0047C30.5978 30.8136 30.3597 30.8713 30.2141 31.1564C30.0685 31.4416 30.4007 31.4734 30.5478 31.5644C32.6788 32.8658 34.9646 33.7546 37.4506 34.0929C37.5871 34.1111 37.7858 34.0732 37.8449 34.2218C37.9223 34.4114 37.7039 34.4872 37.5992 34.5873C35.72 36.4075 32.9261 36.6319 30.5372 35.1728C29.7554 34.6884 29.0413 34.1024 28.4137 33.43C28.2711 33.2784 28.165 32.975 27.8419 33.2541C27.5385 33.5089 27.7509 33.6712 27.8874 33.8608C29.1812 35.6491 30.93 36.7548 33.055 37.2963C33.0997 37.3113 33.1433 37.3296 33.1854 37.3509C33.1854 37.3873 33.2036 37.4358 33.1854 37.4449C32.239 38.1532 31.203 38.6583 30.0002 38.7175C29.1326 38.7584 28.4046 38.3701 27.7615 37.8196C27.0452 37.1905 26.4207 36.464 25.9065 35.6612C25.82 35.5292 25.8125 35.1698 25.4863 35.3579C25.2012 35.5201 25.1678 35.7325 25.3347 36.0434C26.0931 37.4935 27.0152 38.8009 28.309 39.8126C28.6352 40.0674 28.6003 40.1994 28.309 40.4102C26.974 41.3513 25.4857 42.0534 23.9104 42.4851C23.7858 42.5186 23.6541 42.5154 23.5312 42.476C22.0169 42.0642 20.5838 41.3974 19.2934 40.5042C18.7747 40.1372 18.7883 40.1281 19.257 39.7383C20.4678 38.7126 21.4496 37.444 22.1388 36.0146C22.2238 35.8432 22.3345 35.6809 22.1388 35.4928C21.9432 35.3048 21.8052 35.2229 21.6247 35.5217C21.1213 36.3509 20.4989 37.1016 19.7772 37.7498C18.5881 38.8237 17.2716 38.9769 15.8337 38.3413C15.2397 38.0832 14.6752 37.7618 14.1501 37.3827C14.93 37.198 15.6855 36.9221 16.4009 36.5606C17.6829 35.9312 18.7884 34.993 19.618 33.8305C19.7697 33.6181 19.888 33.4513 19.6089 33.2238C19.3298 32.9963 19.2312 33.2435 19.1068 33.3754C17.8661 34.7026 16.4388 35.6976 14.602 36.0237C12.7379 36.3559 11.162 35.8235 9.81671 34.5282C9.72871 34.4432 9.56181 34.3765 9.60281 34.2339C9.64371 34.0914 9.81821 34.1141 9.94101 34.0959C11.0914 33.9321 12.2246 33.664 13.3264 33.2951C14.6187 32.8582 15.8064 32.203 16.9803 31.525C17.1047 31.4522 17.4354 31.434 17.2625 31.1443C17.1335 30.9365 16.9591 30.806 16.6557 30.9562C15.636 31.4783 14.5837 31.9343 13.5054 32.3213C12.2435 32.7612 10.9557 33.016 9.61041 32.928C8.69821 32.8913 7.82451 32.5501 7.12891 31.9588C6.37831 31.284 5.69781 30.5349 5.09801 29.7231C5.96561 29.7686 6.72851 29.8323 7.49301 29.8444C10.0002 29.8808 12.4361 29.403 14.8478 28.7827C14.96 28.7523 15.1511 28.7448 15.0631 28.5521C14.9752 28.3595 14.9115 28.1259 14.5854 28.182C13.9787 28.2897 13.372 28.3732 12.7652 28.4596C10.8496 28.7341 8.93691 29.0436 6.98641 28.8964C4.71121 28.7235 3.18381 27.5177 2.23281 25.5141C1.82031 24.6043 1.49431 23.6577 1.25911 22.6868C1.77781 23.0053 2.19341 23.2723 2.62421 23.5195C4.11061 24.3795 5.75321 24.6996 7.43081 24.8846C9.30851 25.0924 11.1848 25.3214 13.0777 25.1151C13.2415 25.0985 13.5039 25.2259 13.5009 24.8876C13.4978 24.5494 13.2552 24.5737 13.0231 24.5843C10.7623 24.6628 8.50071 24.4559 6.29171 23.9685C4.86341 23.6666 3.52831 23.0269 2.39821 22.1028C0.752511 20.7378 0.242809 18.8752 0.130609 16.8473C0.115409 16.5773 0.130609 16.3043 0.130609 16.0419C0.233709 15.9736 0.292908 16.0419 0.350508 16.0904C2.51651 18.1941 5.17381 19.3939 8.01931 20.2387C9.52381 20.6735 11.0637 20.975 12.6212 21.1397C12.8123 21.1625 13.0762 21.3156 13.1156 20.9122C13.1444 20.5664 12.9306 20.5618 12.6955 20.536C9.86971 20.2327 7.20631 19.3712 4.67631 18.1092C2.66061 17.1112 1.06191 15.6672 0.330809 13.4588C-0.183391 11.8935 -0.0149913 10.3161 0.276209 8.74772C0.322509 8.74022 0.37001 8.74722 0.41221 8.76792C0.45431 8.78852 0.488909 8.82182 0.511309 8.86302C3.51901 12.6959 7.50361 15.0469 12.0873 16.4878C12.5423 16.6395 13.0201 16.7456 13.4796 16.8897C13.7208 16.9656 13.8346 16.8897 13.9134 16.6637C14.0044 16.4059 13.8376 16.3604 13.6647 16.2982C12.9478 16.0393 12.2354 15.7784 11.5276 15.5155C8.77461 14.5054 6.30081 13.022 4.30171 10.8773C2.19641 8.61582 1.61101 5.90842 2.44521 2.92642C2.69391 2.03002 3.30971 1.35352 3.89821 0.669517C3.97261 0.583017 4.07721 0.620916 4.17131 0.624016C4.23951 1.23072 4.53981 1.75552 4.82501 2.27272C6.02321 4.44322 7.64011 6.30572 9.31161 8.12132C11.3001 10.2827 13.5919 12.0786 16.0506 13.6651C16.6952 14.0807 17.2958 14.5751 18.0299 14.8482C18.0299 15.0438 17.8889 15.1682 17.7873 15.3108C17.2241 16.0963 16.8227 16.9859 16.6063 17.9279C16.3899 18.87 16.3628 19.8456 16.5266 20.7981C16.6905 21.7507 17.042 22.6612 17.5607 23.4768C18.0794 24.2923 18.755 24.9967 19.5482 25.5489C19.6847 25.6445 19.8045 25.8007 20.0503 25.7628C19.7955 24.4541 19.9756 23.098 20.5629 21.9011C21.1696 20.6756 22.1313 19.7777 23.3705 19.0405C23.1187 18.9631 22.9837 18.9085 22.8441 18.8888C21.2242 18.5688 21.1636 16.6137 21.793 15.6839C21.8749 15.5626 21.9447 15.4109 22.0964 15.6263C22.8138 16.5773 23.8316 17.1536 24.8023 17.7877C25.9035 18.5051 26.9697 19.2589 27.6371 20.4374C27.7296 20.6013 27.8828 20.7969 27.7888 20.9713C27.6948 21.1458 27.4642 21.0153 27.3004 21.0077C26.3327 20.9668 25.4606 21.1185 24.9251 22.0573C24.1106 23.4846 24.6991 25.2774 26.2174 26.0389C26.3612 26.1226 26.5251 26.1653 26.6915 26.1623C26.8578 26.1594 27.0201 26.1109 27.1609 26.0222C28.0754 25.5343 28.8758 24.8578 29.5093 24.0373C30.1427 23.2169 30.5946 22.2712 30.835 21.263C31.0755 20.2548 31.0991 19.207 30.9042 18.1889C30.7093 17.1709 30.3004 16.2059 29.7045 15.3578C29.5953 15.2061 29.4345 15.0711 29.439 14.8558C29.5695 14.7966 29.706 14.7496 29.8288 14.6783C34.4459 11.9999 38.438 8.36662 41.5383 4.02152C42.2845 2.97492 43.0004 1.89802 43.3008 0.611816C43.5753 0.636116 43.7027 0.863616 43.8604 1.03502C45.3605 2.66702 45.5759 4.62372 45.2407 6.69712C44.8205 9.28622 43.2689 11.1078 41.2273 12.6261C39.0265 14.2703 36.5754 15.3866 33.9863 16.2421C33.8119 16.3012 33.4797 16.2588 33.5449 16.6228C33.5965 16.9155 33.7664 16.9565 34.0394 16.8821C36.1932 16.2936 38.2863 15.5747 40.2384 14.4553C42.5469 13.1251 44.6947 11.6023 46.4268 9.55012C46.5406 9.41512 46.6437 9.26952 46.759 9.13602C46.8742 9.00262 46.9213 8.81752 47.1518 8.71742C47.2914 8.97982 47.2747 9.27252 47.3156 9.54102C47.6857 11.9678 47.3551 14.2081 45.5835 16.0631C44.4247 17.2765 43.0217 18.1153 41.4761 18.7326C39.298 19.6032 37.0775 20.3237 34.7219 20.5527C34.4732 20.5755 34.3412 20.6468 34.3625 20.9334C34.3837 21.255 34.59 21.1867 34.7735 21.164C38.4092 20.7241 41.8629 19.7625 44.9828 17.7907C45.8419 17.245 46.634 16.6005 47.3429 15.8705Z" fill="#1E2D56"/>
</svg>
